<?xml version="1.0" encoding="utf-8"?>
<!-- Generator: Adobe Illustrator 27.0.0, SVG Export Plug-In . SVG Version: 6.00 Build 0)  -->
<svg version="1.1" id="Layer_1" xmlns="http://www.w3.org/2000/svg" xmlns:xlink="http://www.w3.org/1999/xlink" x="0px" y="0px"
	 viewBox="0 0 450 200" style="enable-background:new 0 0 450 200;" xml:space="preserve">
<style type="text/css">
	.st0{fill:#B5FFD9;}
	.st1{fill:#FFFFFF;}
</style>
<polygon class="st0" points="442.4,50.6 442.4,65.1 442.4,65.1 442.4,57.9 442.4,50.6 442.4,43.4 438.8,43.4 435.2,43.4 435.2,36.2 
	428,36.2 428,28.9 420.7,28.9 160.3,28.9 160.3,28.9 160.3,28.9 153,28.9 145.8,28.9 138.6,28.9 131.3,28.9 124.1,28.9 116.9,28.9 
	109.6,28.9 102.4,28.9 95.2,28.9 87.9,28.9 80.7,28.9 73.5,28.9 66.2,28.9 59,28.9 51.8,28.9 44.5,28.9 37.3,28.9 30.1,28.9 
	22.8,28.9 22.8,36.2 15.6,36.2 15.6,43.4 8.4,43.4 8.4,50.6 1.1,50.6 1.1,151.9 8.4,151.9 8.4,137.5 8.4,137.5 8.4,144.7 8.4,151.9 
	8.4,159.2 12,159.2 15.6,159.2 15.6,166.4 22.8,166.4 22.8,173.6 30.1,173.6 131.3,173.6 131.3,173.6 131.3,173.6 138.6,173.6 
	145.8,173.6 153,173.6 160.3,173.6 167.5,173.6 174.7,173.6 341.1,173.6 348.4,173.6 355.6,173.6 362.8,173.6 370.1,173.6 
	377.3,173.6 384.5,173.6 391.8,173.6 399,173.6 406.3,173.6 413.5,173.6 420.7,173.6 428,173.6 428,166.4 435.2,166.4 435.2,159.2 
	442.4,159.2 442.4,151.9 449.7,151.9 449.7,50.6 "/>
<polygon class="st0" points="431.6,57.9 428,57.9 428,50.6 420.7,50.6 420.7,43.4 413.5,43.4 167.5,43.4 167.5,43.4 167.5,43.4 
	160.3,43.4 153,43.4 145.8,43.4 138.6,43.4 131.3,43.4 124.1,43.4 116.9,43.4 109.6,43.4 102.4,43.4 95.2,43.4 87.9,43.4 80.7,43.4 
	73.5,43.4 66.2,43.4 59,43.4 51.8,43.4 44.5,43.4 37.3,43.4 30.1,43.4 30.1,50.6 22.8,50.6 22.8,57.9 15.6,57.9 15.6,65.1 
	15.6,72.3 15.6,79.6 15.6,86.8 15.6,137.5 15.6,144.7 22.8,144.7 22.8,151.9 30.1,151.9 30.1,153.4 30.1,159.2 37.3,159.2 
	44.5,159.2 51.8,159.2 59,159.2 66.2,159.2 73.5,159.2 80.7,159.2 87.9,159.2 87.9,159.2 124.1,159.2 131.3,159.2 138.6,159.2 
	145.8,159.2 153,159.2 160.3,159.2 167.5,159.2 167.5,159.2 413.5,159.2 420.7,159.2 420.7,151.9 428,151.9 428,144.7 431.6,144.7 
	435.2,144.7 435.2,137.5 435.2,86.8 435.2,79.6 435.2,72.3 435.2,65.1 435.2,57.9 "/>
<polygon class="st1" points="87.9,159.2 87.9,159.2 80.7,159.2 "/>
<g>
	<rect x="22.8" y="50.6" class="st0" width="7.2" height="7.2"/>
	<polygon class="st0" points="15.6,65.1 15.6,72.3 15.6,79.6 15.6,130.2 15.6,137.5 15.6,144.7 22.8,144.7 22.8,137.5 22.8,130.2 
		22.8,79.6 22.8,72.3 22.8,65.1 22.8,57.9 15.6,57.9 	"/>
	<rect x="22.8" y="144.7" class="st0" width="7.2" height="7.2"/>
	<polygon class="st0" points="420.7,50.6 420.7,43.4 413.5,43.4 406.3,43.4 406.3,50.6 413.5,50.6 420.7,50.6 420.7,57.9 428,57.9 
		428,50.6 	"/>
	<polygon class="st0" points="428,57.9 428,65.1 428,72.3 428,79.6 428,130.2 428,137.5 428,144.7 435.2,144.7 435.2,137.5 
		435.2,130.2 435.2,79.6 435.2,72.3 435.2,65.1 435.2,57.9 	"/>
	<polygon class="st0" points="420.7,151.9 413.5,151.9 406.3,151.9 406.3,159.2 413.5,159.2 420.7,159.2 420.7,151.9 428,151.9 
		428,144.7 420.7,144.7 	"/>
	<polygon class="st0" points="391.8,43.4 384.5,43.4 377.3,43.4 370.1,43.4 362.8,43.4 355.6,43.4 109.6,43.4 102.4,43.4 95.2,43.4 
		87.9,43.4 80.7,43.4 73.5,43.4 66.2,43.4 59,43.4 51.8,43.4 44.5,43.4 37.3,43.4 30.1,43.4 30.1,50.6 37.3,50.6 44.5,50.6 
		51.8,50.6 59,50.6 66.2,50.6 73.5,50.6 80.7,50.6 87.9,50.6 95.2,50.6 102.4,50.6 109.6,50.6 355.6,50.6 362.8,50.6 370.1,50.6 
		377.3,50.6 384.5,50.6 391.8,50.6 399,50.6 406.3,50.6 406.3,43.4 399,43.4 	"/>
	<polygon class="st0" points="37.3,159.2 44.5,159.2 51.8,159.2 59,159.2 66.2,159.2 73.5,159.2 80.7,159.2 87.9,159.2 355.6,159.2 
		362.8,159.2 370.1,159.2 373.7,159.2 377.3,159.2 384.5,159.2 391.8,159.2 399,159.2 406.3,159.2 406.3,151.9 399,151.9 
		391.8,151.9 384.5,151.9 377.3,151.9 373.7,151.9 370.1,151.9 362.8,151.9 355.6,151.9 87.9,151.9 80.7,151.9 73.5,151.9 
		66.2,151.9 59,151.9 51.8,151.9 44.5,151.9 37.3,151.9 30.1,151.9 30.1,159.2 	"/>
</g>
</svg>
