<svg xmlns="http://www.w3.org/2000/svg" width="41.831" height="54.785" viewBox="0 0 41.831 54.785">
  <g id="Motsinger_Logo_pixelated_2" data-name="Motsinger Logo pixelated_2" transform="translate(-604.72 -325.07)">
    <path id="Path_90" data-name="Path 90" d="M722.185,410.94v3.29h-3.133v3.133h-3.133v3.3H712.8v3.133h-6.551v-3.133h-3.117v-3.3H700V414.23h-3.135v-3.29H690.6v28.836h8.661V426.763h3.858v3.3h3.133v3.091H712.8v-3.091h3.133v-3.3h3.858v13.013h8.661V410.94Z" transform="translate(-83.891 -83.881)" fill="#b5ffd9"/>
    <path id="Path_91" data-name="Path 91" d="M725.32,1799.78h-5.527v3.135h-1.567v3.133h-2.307v2.307h-3.363v.861H706.5v-.861h-3.363v-2.307h-2.307v-3.133H699.26v-3.135H690.6v3.135h.827v3.133h2.307v3.168h.827v3.133h1.567v3.082h6.029v2.991H716.9v-2.991h6.029v-3.082h1.567v-3.133h.827v-3.168h2.307v-3.133h.827v-3.135Z" transform="translate(-83.891 -1440.556)" fill="#b5ffd9"/>
    <rect id="Rectangle_40" data-name="Rectangle 40" width="3.133" height="3.082" transform="translate(623.951 356.144)" fill="#fcfcfc"/>
    <rect id="Rectangle_41" data-name="Rectangle 41" width="1.989" height="28.835" transform="translate(604.72 327.059)" fill="#3e00ff"/>
    <rect id="Rectangle_42" data-name="Rectangle 42" width="1.989" height="13.023" transform="translate(615.376 342.871)" fill="#3e00ff"/>
    <rect id="Rectangle_43" data-name="Rectangle 43" width="1.989" height="3.066" transform="translate(620.37 346.179)" fill="#3e00ff"/>
    <rect id="Rectangle_44" data-name="Rectangle 44" width="1.989" height="1.142" transform="translate(620.37 346.175) rotate(90)" fill="#3e00ff"/>
    <rect id="Rectangle_45" data-name="Rectangle 45" width="1.989" height="3.066" transform="translate(630.912 349.247) rotate(180)" fill="#3e00ff"/>
    <rect id="Rectangle_46" data-name="Rectangle 46" width="1.989" height="1.142" transform="translate(632.054 346.177) rotate(90)" fill="#3e00ff"/>
    <rect id="Rectangle_47" data-name="Rectangle 47" width="1.863" height="3.304" transform="translate(617.365 342.871)" fill="#3e00ff"/>
    <rect id="Rectangle_48" data-name="Rectangle 48" width="1.863" height="3.129" transform="translate(615.376 359.226)" fill="#3e00ff"/>
    <rect id="Rectangle_49" data-name="Rectangle 49" width="1.863" height="1.267" transform="translate(616.934 362.356)" fill="#3e00ff"/>
    <rect id="Rectangle_50" data-name="Rectangle 50" width="1.863" height="2.311" transform="translate(619.245 363.623) rotate(90)" fill="#3e00ff"/>
    <rect id="Rectangle_51" data-name="Rectangle 51" width="1.863" height="1.267" transform="translate(634.334 363.629) rotate(180)" fill="#3e00ff"/>
    <rect id="Rectangle_52" data-name="Rectangle 52" width="1.863" height="2.301" transform="translate(634.334 363.629) rotate(90)" fill="#3e00ff"/>
    <rect id="Rectangle_53" data-name="Rectangle 53" width="1.863" height="3.094" transform="translate(619.214 364.705)" fill="#3e00ff"/>
    <rect id="Rectangle_54" data-name="Rectangle 54" width="1.827" height="1.511" transform="translate(622.588 365.972) rotate(90)" fill="#3e00ff"/>
    <rect id="Rectangle_55" data-name="Rectangle 55" width="1.863" height="3.094" transform="translate(632.039 367.799) rotate(180)" fill="#3e00ff"/>
    <rect id="Rectangle_56" data-name="Rectangle 56" width="1.863" height="3.131" transform="translate(635.9 362.355) rotate(180)" fill="#3e00ff"/>
    <rect id="Rectangle_57" data-name="Rectangle 57" width="1.827" height="1.511" transform="translate(630.177 365.972) rotate(90)" fill="#3e00ff"/>
    <rect id="Rectangle_58" data-name="Rectangle 58" width="1.989" height="13.023" transform="translate(635.9 355.894) rotate(180)" fill="#3e00ff"/>
    <rect id="Rectangle_59" data-name="Rectangle 59" width="1.863" height="3.304" transform="translate(633.911 346.175) rotate(180)" fill="#3e00ff"/>
    <rect id="Rectangle_60" data-name="Rectangle 60" width="1.989" height="6.268" transform="translate(612.977 325.07) rotate(90)" fill="#3e00ff"/>
    <rect id="Rectangle_61" data-name="Rectangle 61" width="3.33" height="8.662" transform="translate(615.376 355.894) rotate(90)" fill="#3e00ff"/>
    <rect id="Rectangle_62" data-name="Rectangle 62" width="3.33" height="8.601" transform="translate(644.516 355.894) rotate(90)" fill="#3e00ff"/>
    <rect id="Rectangle_63" data-name="Rectangle 63" width="1.989" height="6.268" transform="translate(644.585 325.07) rotate(90)" fill="#3e00ff"/>
    <rect id="Rectangle_64" data-name="Rectangle 64" width="1.989" height="3.29" transform="translate(614.966 330.349) rotate(180)" fill="#3e00ff"/>
    <rect id="Rectangle_65" data-name="Rectangle 65" width="1.989" height="3.29" transform="translate(638.317 330.349) rotate(180)" fill="#3e00ff"/>
    <rect id="Rectangle_66" data-name="Rectangle 66" width="1.989" height="3.132" transform="translate(618.098 333.481) rotate(180)" fill="#3e00ff"/>
    <rect id="Rectangle_67" data-name="Rectangle 67" width="1.989" height="3.132" transform="translate(635.156 333.481) rotate(180)" fill="#3e00ff"/>
    <rect id="Rectangle_68" data-name="Rectangle 68" width="1.989" height="3.296" transform="translate(621.234 336.778) rotate(180)" fill="#3e00ff"/>
    <rect id="Rectangle_69" data-name="Rectangle 69" width="1.989" height="3.296" transform="translate(632.049 336.778) rotate(180)" fill="#3e00ff"/>
    <rect id="Rectangle_70" data-name="Rectangle 70" width="1.989" height="3.133" transform="translate(624.347 339.911) rotate(180)" fill="#3e00ff"/>
    <rect id="Rectangle_71" data-name="Rectangle 71" width="1.989" height="2.587" transform="translate(624.347 339.911) rotate(-90)" fill="#3e00ff"/>
    <rect id="Rectangle_72" data-name="Rectangle 72" width="1.989" height="6.564" transform="translate(622.358 351.234) rotate(-90)" fill="#3e00ff"/>
    <rect id="Rectangle_73" data-name="Rectangle 73" width="1.989" height="3.133" transform="translate(628.923 339.911) rotate(180)" fill="#3e00ff"/>
    <rect id="Rectangle_74" data-name="Rectangle 74" width="1.989" height="28.835" transform="translate(644.562 327.059)" fill="#3e00ff"/>
    <rect id="Rectangle_75" data-name="Rectangle 75" width="1.989" height="3.131" transform="translate(604.72 359.226)" fill="#3e00ff"/>
    <rect id="Rectangle_76" data-name="Rectangle 76" width="1.989" height="3.082" transform="translate(621.962 356.144)" fill="#3e00ff"/>
    <rect id="Rectangle_77" data-name="Rectangle 77" width="1.989" height="3.082" transform="translate(627.084 356.144)" fill="#3e00ff"/>
    <rect id="Rectangle_78" data-name="Rectangle 78" width="1.989" height="3.133" transform="translate(627.084 354.155) rotate(90)" fill="#3e00ff"/>
    <rect id="Rectangle_79" data-name="Rectangle 79" width="1.989" height="3.133" transform="translate(627.084 359.226) rotate(90)" fill="#3e00ff"/>
    <rect id="Rectangle_80" data-name="Rectangle 80" width="1.989" height="6.078" transform="translate(628.666 366.687) rotate(90)" fill="#3e00ff"/>
    <rect id="Rectangle_81" data-name="Rectangle 81" width="1.989" height="3.137" transform="translate(605.565 362.357)" fill="#3e00ff"/>
    <rect id="Rectangle_82" data-name="Rectangle 82" width="2.294" height="3.175" transform="translate(607.554 365.486)" fill="#3e00ff"/>
    <rect id="Rectangle_83" data-name="Rectangle 83" width="1.989" height="3.134" transform="translate(608.686 368.66)" fill="#3e00ff"/>
    <rect id="Rectangle_84" data-name="Rectangle 84" width="1.989" height="3.079" transform="translate(610.312 371.794)" fill="#3e00ff"/>
    <rect id="Rectangle_85" data-name="Rectangle 85" width="1.989" height="2.993" transform="translate(616.276 376.862)" fill="#3e00ff"/>
    <rect id="Rectangle_86" data-name="Rectangle 86" width="1.989" height="2.993" transform="translate(633.002 376.862)" fill="#3e00ff"/>
    <rect id="Rectangle_87" data-name="Rectangle 87" width="1.57" height="3.129" transform="translate(639.037 371.744)" fill="#3e00ff"/>
    <rect id="Rectangle_88" data-name="Rectangle 88" width="1.57" height="3.129" transform="translate(640.606 368.614)" fill="#3e00ff"/>
    <rect id="Rectangle_89" data-name="Rectangle 89" width="1.57" height="3.129" transform="translate(641.391 365.485)" fill="#3e00ff"/>
    <rect id="Rectangle_90" data-name="Rectangle 90" width="1.57" height="3.129" transform="translate(643.731 362.355)" fill="#3e00ff"/>
    <rect id="Rectangle_91" data-name="Rectangle 91" width="1.57" height="3.129" transform="translate(644.516 359.226)" fill="#3e00ff"/>
    <rect id="Rectangle_92" data-name="Rectangle 92" width="1.57" height="2.35" transform="translate(645.301 365.485) rotate(90)" fill="#3e00ff"/>
    <rect id="Rectangle_93" data-name="Rectangle 93" width="1.989" height="5.964" transform="translate(612.301 376.862) rotate(-90)" fill="#3e00ff"/>
    <rect id="Rectangle_94" data-name="Rectangle 94" width="1.989" height="6.034" transform="translate(633.002 376.862) rotate(-90)" fill="#3e00ff"/>
    <rect id="Rectangle_95" data-name="Rectangle 95" width="1.989" height="14.737" transform="translate(618.265 379.855) rotate(-90)" fill="#3e00ff"/>
  </g>
</svg>
