<?xml version="1.0" encoding="utf-8"?>
<!-- Generator: Adobe Illustrator 27.0.0, SVG Export Plug-In . SVG Version: 6.00 Build 0)  -->
<svg version="1.1" id="Layer_1" xmlns="http://www.w3.org/2000/svg" xmlns:xlink="http://www.w3.org/1999/xlink" x="0px" y="0px"
	 viewBox="0 0 1920 650" style="enable-background:new 0 0 1920 650;" xml:space="preserve">
<style type="text/css">
	.st0{fill:#3E00FF;}
</style>
<g>
	<path class="st0" d="M0,216.5v35.8h22v16.4c-5.3,0.3-10.7,0.5-17.1,0.9V286H0v366.9h1922.8V251.8h-17.3c0-6.2,0-11.9,0-17.6h-17.9
		V217h-17v16.6h-17.7V217h-35v34.1h-34.8v-16.6H1748v-16.9h-52.2v33.6h-34.9v-16.7h-17V269h16.8v16.9h-34.5v-51.4H1609v17.4h-17.4
		V286h-17.7v-34h-17.7v-34.5h-34c-0.3,5.7-0.6,11-0.9,16.3h-17.5v-16.2h-17.2v16.7h-17c0-5.6,0-11.2,0-16.5h-35.4v16h-35V200h-17.2
		v34.5h-17.1c-0.2,5.8-0.4,11.7-0.6,17.5h-34.6v-17.5h-17.6v-34.9h-17v35.1h-35.3v33.9h-17.5v-16.7h-17v17.4h-34.9V286h-17.7v-16.6
		H1155v-17.1h-16.6c-0.3,5.7-0.6,11-0.9,16.3h-17.4v-34.5h-16.6c-0.3-5.9-0.6-11.2-0.9-17.4h-17.1v-17h-17.7v16.8h-34.1
		c-0.3-5.7-0.5-11-0.8-16.4h-69.6v51.9h-17v16.6h-35.2v-34.1h-87.3V251h-34.1v-33.7c5.7-0.3,11-0.6,16.3-0.9v-16.8h-34v69H754v-34.4
		h-17c0-11.3,0-22.7,0-34.1H719v17h-16.9v34h-17.9v-16.2h-34.9v16.2h-70v-33.6h-17.1v17.1h-17v17.6h17.1v16.9c-11.4,0-22.8,0-35.2,0
		v-17.6h-52V217h-17.1v16.7H406v-16.4h16.8v-17.8h-52.1v51.9h-17.2v16.9h-17.9v-34h-17.8v16.8h-17.2v-16.8h-17.1v34h-35.3v-51h-17.5
		V251h-34.1v-33.7c5.8-0.3,11-0.5,16.2-0.8v-16.2h-34.6v16.9h-17.2v17c-5.7,0.1-11.4,0.2-17.1,0.3v17.7h-17.9v16.5h-17.5v-17.3H91.3
		v-34c-5.9-0.3-11.2-0.6-17.5-0.9v-16.8h-17v17.8h-18v16.3h-35v-17.2H0z M1836.1,269.7h16.6v-17.5h17.5v16.6h34.5v17.3h-68.6V269.7z
		 M1765.9,269.3h16.6V286h-16.6V269.3z M1748.5,252.4h17.1v16.6c-5.7,0-11.4,0-17.1,0C1748.5,263.7,1748.5,258.4,1748.5,252.4z
		 M1731.6,269.3h16.7V286h-16.7V269.3z M1696.5,287.4h16.4v16.3h-16.4V287.4z M1504.3,269.3h16.6V286h-16.6V269.3z M1487.4,252.4
		h16.6v16.7c-5.3,0-10.6,0-16.6,0V252.4z M1452.5,234.4c5.6,0,11.1,0,16.7,0v34h-16.7V234.4z M1451.2,287.1v16.4h-33.7v-16.4H1451.2
		z M1364.5,252.3c23,0,46,0,69.4,0v16.1h-69.4V252.3z M1295.5,251.9h16.1v34h-16.1V251.9z M1225.7,304.5h16.2v16.4h-16.2V304.5z
		 M1068.7,235h17.2v16.5h16.5v17.1h-33.7V235z M1068.5,287.3h16.6v16.1h-16.6V287.3z M1033.8,234.8h16.2v34h-16.2V234.8z M998.5,235
		h16.7v16.6h-16.7V235z M981.2,251.9h17.1c0,5.3,0,10.7,0,17.1h-17.1C981.2,263.7,981.2,258.3,981.2,251.9z M964.2,269.3h16.7V286
		h-16.7V269.3z M877,252.2h16.3v16.3H877V252.2z M842.2,252.4h16.2v16.4h-16.2V252.4z M789.8,270h16.6v15.9h-16.6V270z M720,234.4
		c5.6,0,11.1,0,16.7,0v16.6H720V234.4z M633,269.4h15.9V286H633V269.4z M596.6,269.3V286h-34.1c0-5.6,0-11.1,0-16.7H596.6z
		 M493,269.8h16.6v16.1H493V269.8z M423.1,252.4h34.1V269h-34.1C423.1,263.7,423.1,258.4,423.1,252.4z M406.1,269.3h16.7V286h-16.7
		V269.3z M318.4,286.8c5.3,0,10.6,0,16.6,0v16.7h-16.6V286.8z M301.5,269.8h16.6v16.7h-16.6V269.8z M178,234.4v16.7h-16.6
		c0-5.6,0-11.1,0-16.7H178z M74.6,287.1h16.2v34H74.6V287.1z M39.4,252h16.8c0.3-6.3,0.6-11.5,0.9-17.2h16.3V269h-34
		C39.4,263.7,39.4,258.4,39.4,252z M22.2,269c5.6,0.1,11.3,0.2,16.9,0.3v16.6H22.2V269z"/>
	<path class="st0" d="M1922.8,234.3c-5.9,0-11.7,0.1-17.6,0.1c0-5.4,0-10.9,0-17.6c6.3,0,11.9,0,17.6,0
		C1922.8,222.7,1922.8,228.5,1922.8,234.3z"/>
	<path class="st0" d="M1190.4,251.9c0-5.9,0-11.8,0-17.7l-0.3,0.3c5.7,0,11.4,0,17.7,0c0-6.8,0-12.3,0-17.7l-0.3,0.3
		c5.4,0,10.9,0,17.3,0c0-11.7,0-22.8,0-34.5c6.2,0,11.5,0,17.4,0c0,5.3,0,10.4,0,16.4c5.9,0,11.2,0,17.1,0c0,6.3,0,11.5,0,17.4
		c-5.4,0.3-10.7,0.6-16.6,0.9c0,5.5,0,10.6,0,16.6c-5.9,0-11.2,0-17.8,0c0,6.6,0,12.3,0,18l0.3-0.3c-11.7,0-23.4,0-35.2,0
		L1190.4,251.9z"/>
	<path class="st0" d="M1155.2,181.9c0,11.2,0,22.5,0,35.1c12.2,0,23.7,0,35.2,0l-0.3-0.3c0,5.9,0,11.8,0,17.7l0.3-0.3
		c-17.1,0-34.1,0-52.2,0c0-11.5,0-22.6,0-34.4c-6.1,0-11.1,0-16.9,0c0-5.9,0-11.2,0-17.6c11.2,0,22.7,0,34.2,0L1155.2,181.9z"/>
	<path class="st0" d="M1591.6,234.5c0-11.2,0-22.4,0-34.3c11.4,0,22.4,0,34.6,0c0,5.6,0,11.2,0,16.9l0.3-0.3c-5.7,0-11.4,0-17.7,0
		c0,6.8,0,12.3,0,17.7l0.3-0.3c-5.9,0-11.8,0-17.7,0L1591.6,234.5z"/>
	<path class="st0" d="M911.4,234.5c0-11.3,0-22.5,0-34.4c11.5,0,22.6,0,34.2,0c0,5.2,0,10.3,0,16.3c-5.1,0-10.4,0-17.1,0
		c0,6.7,0,12.3,0,18l0.3-0.3c-5.9,0-11.8,0-17.7,0L911.4,234.5z"/>
	<path class="st0" d="M545.1,234.2c-17,0-34,0-51.8,0c0-5.5,0-10.8,0-16.7c16.7,0,33.5,0,51.5,0c0,5.6,0,11.3,0,17
		C544.9,234.5,545.1,234.2,545.1,234.2z"/>
	<path class="st0" d="M335.8,234.5c0-5.4,0-10.8,0-17.2c-5.8,0-11.1,0-17,0c0-6.2,0-11.5,0-17.7c11.5,0,23,0,34.4,0l-0.3-0.3
		c0,11.5,0,23,0,34.9c-6.5,0-12,0-17.4,0L335.8,234.5z"/>
	<path class="st0" d="M841,199.6c6.8,0,11.8,0,17.4,0c0,5.7,0,10.8,0,16.6c-10.9,0-22,0-33.7,0c0-10.9,0-22,0-33.6
		c5.2,0,10.3,0,16.4,0C841,187.6,841,192.9,841,199.6z"/>
	<path class="st0" d="M196.3,165c0-6.8,0-11.8,0-17.4c5.7,0,10.8,0,16.6,0c0,10.9,0,22,0,33.7c-10.9,0-22,0-33.6,0
		c0-5.2,0-10.3,0-16.4C184.3,165,189.6,165,196.3,165z"/>
	<path class="st0" d="M1329.9,234.5c0-5.4,0-10.9,0-16.9c11.4,0,22.5,0,34.6,0c0,5.6,0,11.3,0,16.9c0,0,0.3-0.3,0.3-0.3
		c-11.7,0-23.4,0-35.2,0L1329.9,234.5z"/>
	<path class="st0" d="M1644.3,217.3c0-5.7,0-11.3,0-17.4c11.4,0,22.5,0,33.9,0c0,5.5,0,10.5,0,17.1c-11.4,0-22.8,0-34.2,0
		C1644,217.1,1644.3,217.3,1644.3,217.3z"/>
	<path class="st0" d="M702.1,216.8c-5.4,0-10.9,0-16.9,0c0-11.4,0-22.4,0-34.1c5.2,0,10.4,0,16.7,0c0,11.5,0,22.9,0,34.4
		C701.8,217,702.1,216.8,702.1,216.8z"/>
	<path class="st0" d="M1714,198.9c0-11.2,0-22,0-33.6c5.2,0,10.5,0,16.4,0c0,10.9,0,22,0,33.6C1724.9,198.9,1719.7,198.9,1714,198.9
		z"/>
	<path class="st0" d="M1538.9,182.8c0,5.6,0,10.4,0,15.9c-11.2,0-22.3,0-34,0c0-5,0-10.3,0-15.9
		C1516.2,182.8,1527.5,182.8,1538.9,182.8z"/>
	<path class="st0" d="M1295.1,199.3c-5.4,0-10.9,0-16.9,0c0-11.4,0-22.4,0-34.1c5.2,0,10.4,0,16.7,0c0,11.5,0,23,0,34.4
		C1294.8,199.6,1295.1,199.3,1295.1,199.3z"/>
	<path class="st0" d="M370.4,164.5c0,11.7,0,23.4,0,35.1c0,0,0.3-0.3,0.3-0.3c-5.9,0-11.8,0-17.7,0l0.3,0.3c0-11.2,0-22.5,0-34.9
		c6.1,0,11.8,0,17.4,0L370.4,164.5z"/>
	<path class="st0" d="M1173,269.4c0-5.4,0-10.9,0-17.5c6.1,0,11.8,0,17.5,0l-0.3-0.3c0,5.9,0,11.8,0,17.7l0.3-0.3
		c-5.9,0-11.8,0-17.7,0L1173,269.4z"/>
	<path class="st0" d="M1574.1,251.9c0-5.4,0-10.9,0-17.5c6.1,0,11.8,0,17.5,0l-0.3-0.3c0,5.9,0,11.8,0,17.7l0.3-0.3
		c-5.9,0-11.8,0-17.7,0L1574.1,251.9z"/>
	<path class="st0" d="M928.5,234.5c5.4,0,10.9,0,17.5,0c0,6.1,0,11.8,0,17.5l0.3-0.3c-5.7,0-11.4,0-17.4,0c0-6.6,0-12,0-17.4
		L928.5,234.5z"/>
	<path class="st0" d="M1783.4,234.5c0-5.4,0-10.8,0-16.9c5.6,0,10.8,0,16.7,0c0,5.1,0,10.4,0,16.6c-5.7,0-11.3,0-17,0
		C1783.1,234.2,1783.4,234.5,1783.4,234.5z"/>
	<path class="st0" d="M1626.1,217c6,0.1,12.1,0.2,18.1,0.3c0,0-0.3-0.3-0.3-0.3c-0.1,5.8-0.2,11.6-0.4,17.4c0,0,0.3-0.3,0.3-0.3
		c-5.9,0-11.8,0-17.7,0l0.3,0.3c0-5.9,0-11.8,0-17.7L1626.1,217z"/>
	<path class="st0" d="M614.3,233.9c-5.6,0-10.6,0-16.3,0c0-5.4,0-10.6,0-16.5c5.3,0,10.6,0,16.3,0
		C614.3,222.8,614.3,227.8,614.3,233.9z"/>
	<path class="st0" d="M283.5,234.2c-5.4,0-10.8,0-16.9,0c0-5.6,0-10.8,0-17.2c5.6,0,11.2,0,16.9,0l-0.3-0.3c0,5.9,0,11.8,0.1,17.7
		C283.3,234.5,283.5,234.2,283.5,234.2z"/>
	<path class="st0" d="M144,234.2c-5.4,0-10.8,0-16.9,0c0-5.5,0-10.8,0-16.7c5.1,0,10.3,0,16.6,0c0,5.7,0,11.3,0,17
		C143.7,234.5,144,234.2,144,234.2z"/>
	<path class="st0" d="M1853.2,217c0-5.4,0-10.9,0-17.4c6.1,0,11.7,0,17.4,0l-0.3-0.3c0,5.9,0,11.8,0,17.7c0,0,0.3-0.3,0.3-0.3
		c-5.9,0-11.8,0-17.7,0L1853.2,217z"/>
	<path class="st0" d="M1190.4,217c0-5.4,0-10.8,0-16.9c5.6,0,10.9,0,17.2,0c0,5.6,0,11.3,0,16.9l0.3-0.3c-5.9,0-11.8,0-17.7,0
		L1190.4,217z"/>
	<path class="st0" d="M632.6,216.4c0-5.6,0-10.6,0-16.3c5.4,0,10.6,0,16.5,0c0,5.3,0,10.6,0,16.3
		C643.7,216.4,638.7,216.4,632.6,216.4z"/>
	<path class="st0" d="M440.2,199.6c5.4,0,10.9,0,17.4,0c0,6.1,0,11.8,0,17.4l0.3-0.3c-5.7,0-11.4,0-17.4,0c0-6.6,0-12,0-17.4
		L440.2,199.6z"/>
	<path class="st0" d="M283.5,217.1c0-5.4,0-10.8,0-16.9c5.6,0,10.8,0,16.7,0c0,5.1,0,10.4,0,16.6c-5.7,0-11.3,0-17,0
		C283.2,216.8,283.5,217.1,283.5,217.1z"/>
	<path class="st0" d="M1870.6,199.6c0-5.4,0-10.8,0-16.9c5.6,0,10.8,0,16.7,0c0,5.1,0,10.3,0,16.6c-5.7,0-11.3,0-17,0
		C1870.3,199.3,1870.6,199.6,1870.6,199.6z"/>
	<path class="st0" d="M1085.8,199.6c0-5.4,0-10.8,0-16.9c5.6,0,10.8,0,16.7,0c0,5.1,0,10.4,0,16.6c-5.7,0-11.3,0-17,0
		C1085.5,199.3,1085.8,199.6,1085.8,199.6z"/>
	<path class="st0" d="M771.9,199.3c-5.4,0-10.8,0-16.9,0c0-5.6,0-10.8,0-16.7c5.1,0,10.3,0,16.6,0c0,5.7,0,11.3,0,17
		C771.6,199.6,771.9,199.3,771.9,199.3z"/>
	<path class="st0" d="M545.8,182.4c5.4,0,10.4,0,16.1,0c0,5.5,0,10.8,0,16.6c-5.2,0-10.3,0-16.1,0
		C545.8,193.9,545.8,188.7,545.8,182.4z"/>
	<path class="st0" d="M423,199.6c0-5.4,0-10.8,0-16.9c5.6,0,10.9,0,17.2,0c0,5.6,0,11.3,0,16.9l0.3-0.3c-5.9,0-11.8,0-17.7,0
		L423,199.6z"/>
	<path class="st0" d="M231.6,182.5c5.5,0,10.5,0,16.2,0c0,5.2,0,10.5,0,16.4c-5.2,0-10.4,0-16.2,0
		C231.6,193.7,231.6,188.6,231.6,182.5z"/>
	<path class="st0" d="M56.8,199.3c-5.4,0-10.8,0-16.9,0c0-5.6,0-10.8,0-16.7c5.1,0,10.3,0,16.6,0c0,5.7,0,11.3,0,17
		C56.5,199.6,56.8,199.3,56.8,199.3z"/>
	<path class="st0" d="M1365.1,181.5c0-5.6,0-10.6,0-16.3c5.4,0,10.6,0,16.5,0c0,5.3,0,10.6,0,16.3
		C1376.2,181.5,1371.2,181.5,1365.1,181.5z"/>
	<path class="st0" d="M1155.5,182.2c0-5.4,0-10.8,0-16.9c5.6,0,10.8,0,16.7,0c0,5.1,0,10.4,0,16.6c-5.7,0-11.3,0-17,0
		C1155.2,181.9,1155.5,182.2,1155.5,182.2z"/>
	<path class="st0" d="M650.2,165c5.9,0,10.9,0,16.4,0c0,5.5,0,10.5,0,16.3c-5.2,0-10.5,0-16.4,0C650.2,176.2,650.2,170.9,650.2,165z
		"/>
	<path class="st0" d="M1661.7,147.6c5.5,0,10.5,0,16.2,0c0,5.2,0,10.5,0,16.4c-5.2,0-10.4,0-16.2,0
		C1661.7,158.8,1661.7,153.7,1661.7,147.6z"/>
	<path class="st0" d="M1626.6,163.8c0-5.4,0-10.4,0-16.1c5.5,0,10.8,0,16.6,0c0,5.2,0,10.2,0,16.1
		C1638.2,163.8,1633,163.8,1626.6,163.8z"/>
	<path class="st0" d="M1417.5,147.6c5.5,0,10.5,0,16.2,0c0,5.2,0,10.5,0,16.4c-5.2,0-10.4,0-16.2,0
		C1417.5,158.8,1417.5,153.7,1417.5,147.6z"/>
	<path class="st0" d="M1330.3,147.6c5.5,0,10.5,0,16.2,0c0,5.2,0,10.5,0,16.4c-5.2,0-10.4,0-16.2,0
		C1330.3,158.8,1330.3,153.7,1330.3,147.6z"/>
	<path class="st0" d="M1225.7,147.3c5.8,0,10.6,0,16.1,0c0,5.4,0,10.7,0,16.6c-5,0-10.3,0-16.1,0
		C1225.7,158.6,1225.7,153.4,1225.7,147.3z"/>
	<path class="st0" d="M981.5,147.5c5.6,0,10.6,0,16.3,0c0,5.4,0,10.6,0,16.5c-5.3,0-10.6,0-16.3,0
		C981.5,158.7,981.5,153.6,981.5,147.5z"/>
	<path class="st0" d="M614,164.2c-5.6,0-10.6,0-16.2,0c0-5.6,0-10.9,0-16.6c5.4,0,10.4,0,16.2,0C614,152.8,614,158,614,164.2z"/>
	<path class="st0" d="M492.5,147.3c5.4,0,10.8,0,16.9,0c0,5.5,0,10.8,0,16.7c-5.1,0-10.4,0-16.6,0c0-5.7,0-11.3,0-16.9L492.5,147.3z
		"/>
	<path class="st0" d="M370.7,164.7c0-5.4,0-10.8,0-16.9c5.6,0,10.8,0,16.7,0c0,5.1,0,10.4,0,16.6c-5.7,0-11.3,0-17,0
		C370.4,164.5,370.7,164.7,370.7,164.7z"/>
	<path class="st0" d="M231.8,147.5c5.4,0,10.4,0,16.1,0c0,5.5,0,10.8,0,16.6c-5.2,0-10.3,0-16.1,0
		C231.8,159,231.8,153.8,231.8,147.5z"/>
	<path class="st0" d="M92.2,147.5c5.6,0,10.6,0,16.2,0c0,5.6,0,10.9,0,16.6c-5.4,0-10.4,0-16.2,0C92.2,158.9,92.2,153.7,92.2,147.5z
		"/>
	<path class="st0" d="M1817.6,147c-5.8,0-10.6,0-16.1,0c0-5.4,0-10.7,0-16.6c5,0,10.3,0,16.1,0
		C1817.6,135.6,1817.6,140.9,1817.6,147z"/>
	<path class="st0" d="M544.5,146.7c-5.6,0-10.6,0-16.3,0c0-5.4,0-10.6,0-16.5c5.3,0,10.6,0,16.3,0
		C544.5,135.6,544.5,140.6,544.5,146.7z"/>
	<path class="st0" d="M492.8,147c-5.4,0-10.8,0-16.9,0c0-5.6,0-10.8,0-16.7c5.1,0,10.4,0,16.6,0c0,5.7,0,11.3,0,17
		C492.5,147.3,492.8,147,492.8,147z"/>
	<path class="st0" d="M4.8,130.1c5.5,0,10.5,0,16.2,0c0,5.2,0,10.5,0,16.4c-5.2,0-10.4,0-16.2,0C4.8,141.3,4.8,136.3,4.8,130.1z"/>
	<path class="st0" d="M718.7,129.3c-5.6,0-10.6,0-16.2,0c0-5.6,0-10.9,0-16.6c5.4,0,10.4,0,16.2,0
		C718.7,117.9,718.7,123.1,718.7,129.3z"/>
	<path class="st0" d="M667.2,128.9c0-5.6,0-10.4,0-15.9c5.4,0,10.7,0,16.6,0c0,5.1,0,10.3,0,15.9
		C678.3,128.9,672.8,128.9,667.2,128.9z"/>
	<path class="st0" d="M1904.7,111.8c-5.7,0-10.7,0-16.3,0c0-5.4,0-10.5,0-16.3c5.1,0,10.3,0,16.3,0
		C1904.7,100.5,1904.7,105.8,1904.7,111.8z"/>
	<path class="st0" d="M1225.6,111.6c0-5.7,0-10.7,0-16.3c5.4,0,10.5,0,16.3,0c0,5,0,10.3,0,16.3
		C1236.9,111.6,1231.6,111.6,1225.6,111.6z"/>
</g>
</svg>
